<svg width="64" height="64" viewBox="0 0 24 24" fill="none" xmlns="http://www.w3.org/2000/svg">
  <filter id="shadow">
    <feDropShadow dx="0" dy="2" stdDeviation="1" flood-color="#000000" flood-opacity="0.2"/>
  </filter>
  <path d="M12 21.35l-1.45-1.32C5.4 15.36 2 12.28 2 8.5 2 5.42 4.42 3 7.5 3c1.74 0 3.41.81 4.5 2.09C13.09 3.81 14.76 3 16.5 3 19.58 3 22 5.42 22 8.5c0 3.78-3.4 6.86-8.55 11.54L12 21.35z" fill="#FF4B4B" filter="url(#shadow)"/>
  <path d="M4 8.5C4 6.5 5.5 5 7.5 5c1.2 0 2.3.6 3 1.5.3.4.9.4 1.2 0 .7-.9 1.8-1.5 3-1.5 2 0 3.5 1.5 3.5 3.5 0 2.5-2.5 5-7.5 9.5C5.5 13 4 10.5 4 8.5z" fill="#FF8080" fill-opacity="0.3"/>
</svg>
